# xmcd
#
# Track frame offsets:
#	150
#	13865
#	35518
#	49190
#	58790
#	71630
#	83698
#	94555
#	105000
#	118345
#	129048
#	142430
#	155235
#	167455
#	181240
#	192783
#	204575
#	214920
#	230790
#	242348
#
# Disc length: 3461 seconds
#
# Revision: 0
# Processed by: cddbd v1.4PL0 Copyright (c) Steve Scherf et al.
# Submitted via: dBpowerAMP V4.0
#
DISCID=180d8314
DTITLE=various artist - RHYTHM and BLUES
DYEAR=1900
DGENRE=
TTITLE0=Blues brothers-Soul man
TTITLE1=Ray Charles-What'd  I say
TTITLE2=Eddy Floys-Knock on wood
TTITLE3=Aretha Franklin-Think
TTITLE4=Booker T. and the MG's
TTITLE5=Otis Redding-The dock of the bay
TTITLE6=Wilson Picket-Land of 1000 dances
TTITLE7=Arthur Conley-Sweet Soul Music
TTITLE8=Ben E. King-Stand by me
TTITLE9=Aretha Franklin-Respect
TTITLE10=Otis Redding and Carla Thomas-Tramps
TTITLE11=Percy Sledge-When man loves a woman
TTITLE12=Salomon Burke-Everybody needs somebody to love
TTITLE13=Wilson Picket-Mustang Sally
TTITLE14=Ray Charles-Hallelujah, I love her so
TTITLE15=Otis Redding-Shake
TTITLE16=Bar Kays-Soul finger
TTITLE17=Aretha Franklin-Say a little prayer
TTITLE18=The Mar Keys-Last night
TTITLE19=Brook Benton-Rainy night in Georgia
EXTD=
EXTT0=
EXTT1=
EXTT2=
EXTT3=
EXTT4=
EXTT5=
EXTT6=
EXTT7=
EXTT8=
EXTT9=
EXTT10=
EXTT11=
EXTT12=
EXTT13=
EXTT14=
EXTT15=
EXTT16=
EXTT17=
EXTT18=
EXTT19=
PLAYORDER=
